<svg width="46" height="46" viewBox="0 0 46 46" fill="none" xmlns="http://www.w3.org/2000/svg">
<g clip-path="url(#clip0_0_59)">
<path d="M9.00756 41.4C8.60417 41.4077 8.21661 41.2432 7.94189 40.9477C7.75094 40.7439 7.6578 40.4672 7.68659 40.1894C7.72498 39.9141 7.61134 39.6396 7.3896 39.472C7.16786 39.3044 6.87276 39.2699 6.61835 39.3819C6.36394 39.4939 6.19009 39.7348 6.16399 40.0116C6.08406 40.7245 6.31477 41.4373 6.79726 41.9681C7.36308 42.5898 8.167 42.9408 9.00756 42.9333C9.43097 42.9333 9.77422 42.5901 9.77422 42.1667C9.77422 41.7433 9.43097 41.4 9.00756 41.4Z" fill="#393939"/>
<path d="M46 31.8167C45.9966 29.0659 43.7675 26.8368 41.0167 26.8334C40.3657 26.8339 39.7214 26.9642 39.1215 27.2167L35.4783 22.4818C36.0683 21.8002 36.2015 20.835 35.8179 20.0192L34.2401 16.6367C33.9373 15.9867 33.4485 15.4411 32.8356 15.0689L32.5251 14.8803C32.2179 14.6958 31.8852 14.5579 31.5376 14.4709L28.1819 7.27111C28.503 6.82758 28.5557 6.24388 28.3191 5.75004L26.0506 0.88554C25.8787 0.516802 25.5672 0.231503 25.1849 0.0924552C24.8026 -0.0465923 24.3806 -0.0279876 24.012 0.144173L21.2367 1.43984C21.127 1.4919 21.024 1.55703 20.93 1.63381C19.2863 0.14034 16.7041 -0.177827 14.5759 0.0905066C12.5779 0.348107 10.0602 1.19911 8.9838 2.81601C8.43854 3.63292 8.28591 4.6504 8.5675 5.59134C8.91846 6.69493 9.60246 7.66281 10.5256 8.36207C11.8676 9.42121 13.3004 10.3599 14.8074 11.1673C16.196 11.9105 17.5198 12.7689 18.7649 13.7333C21.63 16.0878 23.4416 19.0233 23.7245 21.7833C24.0511 24.9267 22.3821 27.4413 20.2699 29.6685L20.1978 29.0475C20.0208 27.5474 19.394 26.136 18.4 24.9987V19.9334C18.3975 17.3939 16.3395 15.3359 13.8 15.3334H10.7333C8.19387 15.3359 6.13587 17.3939 6.13333 19.9334V25.0141C5.14697 26.1492 4.52506 27.5549 4.34853 29.0483L3.45 36.8H1.53333C0.686497 36.8 0 37.4865 0 38.3334V44.4667C0 45.3135 0.686497 46 1.53333 46H4.6C5.16668 45.9979 5.68569 45.6825 5.94857 45.1805C6.87831 45.7182 7.93353 46.0009 9.00757 46H15.5388C16.609 46.0014 17.6606 45.7209 18.5878 45.1866C18.8526 45.6846 19.3694 45.997 19.9333 46H23C23.8468 46 24.5333 45.3135 24.5333 44.4667V38.3334C24.5333 37.4865 23.8468 36.8 23 36.8H21.0971L20.4961 31.622C23.1411 29.0291 25.6864 25.8229 25.2494 21.6254C24.9197 18.466 22.9111 15.1578 19.7363 12.5488C18.4256 11.5296 17.0315 10.6225 15.5687 9.83714C14.1385 9.07472 12.7788 8.18702 11.5054 7.18447C10.826 6.68314 10.316 5.98636 10.0433 5.18731C9.87752 4.67432 9.95637 4.1136 10.2572 3.66624C11.0017 2.55304 13.0602 1.83237 14.7691 1.61004C16.4895 1.39461 18.7289 1.63304 19.9885 2.86507L19.4726 3.10504C18.7355 3.44887 18.1652 4.07143 17.8871 4.83575C17.609 5.60008 17.646 6.44356 17.9898 7.18064L18.3141 7.87524C18.6558 8.61352 19.2776 9.18523 20.0418 9.46393C20.8061 9.74262 21.65 9.70532 22.3867 9.36027L23.2775 8.94474C23.4939 9.09343 23.7451 9.18351 24.0066 9.20617L27.3669 16.4128C27.2101 16.7353 27.1018 17.0791 27.0457 17.4333L26.9913 17.7913C26.8812 18.5004 26.9851 19.2261 27.2895 19.8759L28.8665 23.2584C29.246 24.0679 30.0586 24.5857 30.9526 24.5878C31.032 24.5833 31.1111 24.5746 31.1895 24.5617L31.717 26.8019C28.8419 28.1858 27.2031 31.2808 27.6745 34.4366C28.1459 37.5925 30.6176 40.0735 33.7717 40.5567C34.0703 43.2211 36.0649 45.3827 38.6968 45.8942C41.3286 46.4057 43.9876 45.1484 45.2625 42.7898C46.5373 40.4312 46.1324 37.518 44.2627 35.5964C45.3677 34.652 46.0028 33.2703 46 31.8167V31.8167ZM10.7333 16.8667H13.8C15.4937 16.8667 16.8667 18.2397 16.8667 19.9334V23.6371C14.0856 21.7625 10.4443 21.7658 7.66667 23.6456V19.9334C7.66667 18.2397 9.03966 16.8667 10.7333 16.8667ZM1.53333 44.4667V38.3334H3.27137L3.11803 39.6589C2.93116 41.241 3.43804 42.8265 4.508 44.0067C4.53713 44.0389 4.5701 44.0673 4.6 44.0995V44.4667H1.53333ZM9.00757 44.4667C7.72963 44.4742 6.50917 43.9362 5.65263 42.9878C4.87559 42.1326 4.50656 40.983 4.64063 39.8353L5.87113 29.2254C6.3119 26.0447 9.06476 23.6982 12.2751 23.7667C15.4843 23.6988 18.2355 26.0456 18.6745 29.2254L19.9065 39.8353C20.0406 40.9828 19.6715 42.1321 18.8945 42.987C18.8102 43.0821 18.7197 43.1687 18.6277 43.2554L18.6223 43.2607C17.7849 44.0396 16.6825 44.4708 15.5388 44.4667H9.00757ZM23 38.3334V44.4667H19.9333V44.1133C19.9678 44.0765 20.0054 44.0443 20.0391 44.0067C21.1095 42.8267 21.6164 41.241 21.4291 39.6589L21.275 38.3334H23ZM28.4433 15.0919L25.4901 8.75921L26.8793 8.11137L29.8325 14.444C29.581 14.4995 29.3361 14.5815 29.1019 14.6886C28.8685 14.799 28.6477 14.9342 28.4433 15.0919V15.0919ZM24.6606 1.53337L26.9299 6.39634L24.15 7.69277L21.8814 2.82904L24.6606 1.53337ZM21.7404 7.97337C21.3717 8.14612 20.9494 8.16468 20.567 8.02493C20.1846 7.88519 19.8737 7.59869 19.7033 7.22894L19.379 6.53357C19.0216 5.76612 19.3539 4.85425 20.1212 4.49654L20.8158 4.17224L22.4357 7.64677L21.7404 7.97337ZM30.2588 22.609L28.681 19.2265C28.5059 18.8509 28.4461 18.4317 28.5093 18.0221L28.5637 17.6633C28.6689 16.9693 29.1145 16.374 29.7506 16.0773C30.3868 15.7807 31.1292 15.822 31.7285 16.1874L32.039 16.376C32.3932 16.5912 32.6758 16.9066 32.8509 17.2822L34.4279 20.6655C34.6064 21.0492 34.4403 21.5048 34.0569 21.6837L31.28 22.9801C31.0954 23.0668 30.884 23.0763 30.6923 23.0067C30.5007 22.9371 30.3447 22.794 30.2588 22.609V22.609ZM42.6497 34.8504C42.4141 34.9747 42.2599 35.2123 42.2424 35.4781C42.2249 35.7438 42.3466 35.9996 42.5638 36.1537C44.3262 37.4294 44.9539 39.7652 44.0683 41.7524C43.1828 43.7396 41.0261 44.8347 38.8992 44.3772C36.7723 43.9196 35.2567 42.0346 35.2667 39.859C35.2674 39.4527 34.9509 39.1164 34.5452 39.0924C31.9971 38.9394 29.8548 37.1248 29.2849 34.6366C28.7149 32.1483 29.8537 29.5821 32.0812 28.3353L33.7533 35.4407C33.816 35.7075 34.0163 35.9206 34.2787 35.9996C34.5411 36.0787 34.8257 36.0118 35.0254 35.8241C35.2251 35.6364 35.3095 35.3564 35.2467 35.0896L32.6439 24.0343L34.1857 23.3159L40.792 31.9026C40.9591 32.1198 41.2294 32.2314 41.501 32.1953C41.7727 32.1592 42.0044 31.9809 42.109 31.7276C42.2136 31.4743 42.175 31.1844 42.008 30.9672L40.1043 28.4917C40.4013 28.4087 40.7083 28.3667 41.0167 28.3667C42.5938 28.3712 43.9671 29.4447 44.3523 30.9741C44.7375 32.5035 44.0365 34.0994 42.6497 34.8504V34.8504Z" fill="#393939"/>
<path d="M12.2666 25.3C9.72612 25.3 7.66663 27.3595 7.66663 29.9001C7.66663 32.4406 9.72612 34.5001 12.2666 34.5001C14.8071 34.5001 16.8666 32.4406 16.8666 29.9001C16.8641 27.3606 14.8061 25.3026 12.2666 25.3ZM12.2666 32.9667C10.7243 32.9686 9.42148 31.8226 9.22677 30.2926C9.03206 28.7625 10.0063 27.3267 11.5 26.9422V29.1334C11.5 29.5568 11.8432 29.9001 12.2666 29.9001C12.69 29.9001 13.0333 29.5568 13.0333 29.1334V26.9422C14.527 27.3267 15.5012 28.7625 15.3065 30.2926C15.1118 31.8226 13.809 32.9686 12.2666 32.9667V32.9667Z" fill="#393939"/>
</g>
<defs>
<clipPath id="clip0_0_59">
<rect width="46" height="46" fill="white"/>
</clipPath>
</defs>
</svg>
